<svg width="658" height="416" viewBox="0 0 658 416" fill="none" xmlns="http://www.w3.org/2000/svg">
<path d="M116.65 108.736C106.871 42.4315 76.8525 16.209 -37.1666 0V139.558C3.95647 141.226 14.9296 148.216 10.0683 172.949C-4.29306 245.909 29.7667 265.504 148.745 270.983C239.242 275.076 268.604 295.533 281.972 365.163C300.726 422.455 336.755 443.233 427.916 468.333H625.333C620.408 400.178 593.167 370.896 458.194 350.18C361.163 333.99 333.643 315.592 337.079 264.561C339.637 201.2 309.47 185.853 219.598 181.511C148.705 177.183 127.113 160.503 116.65 108.736Z" fill="url(#paint0_linear_64_60)"/>
<path d="M95.3669 136.265C86.9409 73.4998 61.0762 48.6771 -37.1666 33.3334V165.442C-1.73351 167.02 7.72131 173.637 3.53264 197.051C-8.84161 266.115 20.5055 284.665 123.022 289.851C200.996 293.726 226.296 313.091 237.814 379.004C253.973 433.238 285.018 452.907 363.565 476.667H533.667C529.423 412.15 505.951 384.431 389.654 364.82C306.048 349.494 282.336 332.079 285.297 283.772C287.5 223.793 261.508 209.265 184.07 205.155C122.987 201.058 104.382 185.269 95.3669 136.265Z" fill="url(#paint1_linear_64_60)"/>
<path d="M83.4762 215.328C75.3823 150.085 50.5371 124.283 -43.8334 108.333V245.657C-9.7969 247.298 -0.714752 254.175 -4.73831 278.513C-16.6248 350.304 11.5655 369.586 110.041 374.976C184.942 379.004 209.245 399.134 220.309 467.649C235.831 524.023 265.652 544.469 341.103 569.167H504.5C500.423 502.103 477.877 473.29 366.164 452.905C285.853 436.975 263.075 418.872 265.92 368.658C268.036 306.311 243.069 291.21 168.683 286.938C110.008 282.679 92.136 266.266 83.4762 215.328Z" fill="url(#paint2_linear_64_60)"/>
<path d="M77.7602 285.667C70.4536 231.397 48.025 209.934 -37.1666 196.667V310.896C-6.44069 312.261 1.75809 317.982 -1.87412 338.227C-12.6045 397.944 12.8439 413.983 101.741 418.467C169.357 421.818 191.296 438.562 201.284 495.555C215.296 542.448 242.216 559.455 310.329 580H457.833C454.153 524.215 433.8 500.247 332.952 483.291C260.453 470.039 239.891 454.981 242.459 413.211C244.369 361.35 221.83 348.788 154.68 345.235C101.711 341.692 85.5778 328.04 77.7602 285.667Z" fill="url(#paint3_linear_64_60)"/>
<path d="M47.8333 340C41.1049 275.466 20.4509 249.943 -58 234.167V370C-29.7052 371.623 -22.1552 378.426 -25.5 402.5C-35.3813 473.512 -11.9465 492.585 69.9167 497.917C132.183 501.901 152.386 521.812 161.583 589.583C174.487 645.346 199.277 665.57 262 690H397.833C394.445 623.664 375.701 595.164 282.833 575C216.071 559.242 197.135 541.336 199.5 491.667C201.26 429.996 180.504 415.059 118.667 410.833C69.8891 406.62 55.0323 390.386 47.8333 340Z" fill="url(#paint4_linear_64_60)"/>
<circle cx="641.583" cy="392.917" r="16.25" fill="url(#paint5_linear_64_60)"/>
<circle cx="259.5" cy="137.5" r="29.1667" fill="url(#paint6_linear_64_60)"/>
<defs>
<linearGradient id="paint0_linear_64_60" x1="583.667" y1="455.833" x2="-13.8333" y2="17.9166" gradientUnits="userSpaceOnUse">
<stop stop-color="#E66F81"/>
<stop offset="1" stop-color="#F0B93E"/>
</linearGradient>
<linearGradient id="paint1_linear_64_60" x1="-7.16663" y1="83.75" x2="508.25" y2="462.917" gradientUnits="userSpaceOnUse">
<stop offset="0.19576" stop-color="#E44DE6"/>
<stop offset="0.520473" stop-color="#DA42A6"/>
</linearGradient>
<linearGradient id="paint2_linear_64_60" x1="-10.5" y1="158.75" x2="304.917" y2="460.417" gradientUnits="userSpaceOnUse">
<stop offset="0.112262" stop-color="#E14584"/>
<stop offset="1" stop-color="#A437B8"/>
</linearGradient>
<linearGradient id="paint3_linear_64_60" x1="-11.75" y1="231.667" x2="234.5" y2="454.583" gradientUnits="userSpaceOnUse">
<stop stop-color="#AB39BC"/>
<stop offset="0.959088" stop-color="#7D40EB"/>
</linearGradient>
<linearGradient id="paint4_linear_64_60" x1="46.1667" y1="427.083" x2="-13.8333" y2="340.417" gradientUnits="userSpaceOnUse">
<stop stop-color="#795EF6"/>
<stop offset="1" stop-color="#7899F8"/>
</linearGradient>
<linearGradient id="paint5_linear_64_60" x1="641.583" y1="376.667" x2="641.583" y2="409.167" gradientUnits="userSpaceOnUse">
<stop stop-color="#795EF6"/>
<stop offset="1" stop-color="#7DB0F6"/>
</linearGradient>
<linearGradient id="paint6_linear_64_60" x1="259.5" y1="108.333" x2="259.5" y2="166.667" gradientUnits="userSpaceOnUse">
<stop stop-color="#AB39BC"/>
<stop offset="1" stop-color="#7E40ED"/>
</linearGradient>
</defs>
</svg>
